<svg width="40" height="40" viewBox="0 0 24 24" xmlns="http://www.w3.org/2000/svg" class="icon">
  <!-- Белый круг -->
  <circle cx="12" cy="12" r="12" fill="#E0E0E0"/>

  <!-- Упрощённый GitHub path, вписан в квадрат 24x24 -->
  <path fill="currentColor" d="M12 0C5.373 0 0 5.373 0 12c0 5.302 3.438 9.8 8.205 11.385.6.111.82-.261.82-.577 
    0-.285-.01-1.04-.015-2.04-3.338.724-4.042-1.61-4.042-1.61-.546-1.387-1.333-1.756-1.333-1.756-1.089-.744.084-.729.084-.729 
    1.205.084 1.84 1.236 1.84 1.236 1.07 1.834 2.809 1.304 3.495.997.108-.776.418-1.305.762-1.605-2.665-.305-5.466-1.333-5.466-5.93 
    0-1.31.468-2.381 1.236-3.221-.124-.303-.536-1.523.117-3.176 0 0 1.008-.322 3.3 1.23.957-.266 1.983-.399 3.003-.404 
    1.02.005 2.047.138 3.006.404 2.289-1.552 3.295-1.23 3.295-1.23.655 1.653.243 2.873.12 3.176.77.84 1.235 1.911 1.235 3.221 
    0 4.609-2.803 5.624-5.475 5.921.429.369.813 1.096.813 2.21 0 1.595-.014 2.883-.014 3.273 0 .319.216.694.825.576C20.565 21.8 24 17.302 24 12c0-6.627-5.373-12-12-12z"/>
</svg>
